<?xml version="1.0" standalone="no"?>
<!DOCTYPE svg PUBLIC "-//W3C//DTD SVG 20010904//EN"
 "http://www.w3.org/TR/2001/REC-SVG-20010904/DTD/svg10.dtd">
<svg version="1.0" xmlns="http://www.w3.org/2000/svg"
 width="600.000000pt" height="600.000000pt" viewBox="0 0 600.000000 600.000000"
 preserveAspectRatio="xMidYMid meet">

<g transform="translate(0.000000,600.000000) scale(0.100000,-0.100000)"
fill="#ffffff" stroke="none">
<path d="M2015 4911 c-49 -22 -77 -57 -142 -181 -28 -52 -68 -129 -91 -170
-42 -79 -72 -174 -72 -233 0 -25 -5 -36 -17 -39 -10 -2 -187 -1 -393 2 -206 4
-377 5 -380 3 -3 -3 5 -13 17 -23 29 -23 156 -46 373 -65 218 -19 360 -48 360
-73 0 -19 -27 -32 -66 -32 -55 0 -84 -25 -117 -98 -34 -75 -44 -140 -25 -166
14 -18 17 -17 63 18 37 29 55 36 82 34 32 -3 36 -8 70 -82 39 -86 40 -80 -15
-169 -16 -27 -16 -29 2 -43 25 -18 77 -18 123 1 19 8 41 15 48 15 25 0 37 -55
30 -133 -6 -68 -5 -78 20 -128 15 -30 58 -85 94 -124 165 -174 181 -194 181
-219 0 -35 -30 -52 -129 -70 -182 -35 -290 -18 -472 70 -155 76 -183 78 -177
16 l3 -37 -52 -5 c-33 -4 -60 -13 -75 -26 -52 -48 -27 -51 -649 92 -537 123
-585 132 -596 117 -22 -30 -11 -84 20 -96 7 -3 274 -65 593 -137 546 -125 584
-135 662 -176 85 -44 128 -54 150 -32 22 22 26 -22 9 -88 -21 -77 -21 -124 -2
-219 33 -160 100 -280 281 -510 103 -131 133 -160 146 -147 8 8 0 36 -30 104
-80 183 -112 320 -112 475 0 194 50 303 137 303 23 0 45 -6 51 -12 6 -7 22
-80 37 -163 50 -288 121 -536 192 -680 114 -227 293 -403 540 -530 100 -52
271 -120 279 -112 4 3 -32 49 -79 102 -158 177 -217 290 -217 414 0 66 14 131
29 131 4 0 33 -29 64 -64 75 -85 151 -133 326 -207 80 -34 163 -72 185 -86 83
-51 171 -151 250 -285 23 -40 49 -73 57 -73 7 0 24 19 37 43 61 110 37 416
-41 524 -34 47 -37 49 75 -39 163 -128 328 -194 571 -228 111 -16 357 -20 357
-6 0 4 -73 34 -161 65 -473 168 -666 298 -777 526 -30 62 -37 88 -40 150 -2
45 2 91 10 115 12 37 16 40 53 43 22 1 60 -3 85 -11 36 -10 46 -18 48 -37 11
-87 52 -150 97 -150 29 0 52 -27 74 -87 44 -122 232 -332 345 -386 207 -101
507 -114 822 -38 118 29 174 55 156 73 -6 6 -91 10 -224 9 -229 -2 -331 10
-413 50 -22 11 -31 17 -20 13 11 -3 63 -15 115 -26 113 -25 374 -29 510 -9
217 32 426 107 518 186 47 41 102 128 102 162 0 22 -2 21 -46 -12 -86 -66
-170 -98 -301 -116 -84 -11 -221 -2 -299 20 -28 8 -27 9 16 14 25 3 95 10 156
16 238 24 399 90 542 224 84 80 68 99 -47 55 -122 -47 -356 -71 -466 -49 -33
7 -22 9 56 10 111 1 188 14 238 39 69 34 51 40 -111 35 -168 -6 -293 10 -390
48 -29 11 -102 51 -163 89 -145 90 -234 120 -380 127 -170 8 -322 -15 -432
-67 -79 -37 -92 -40 -142 -35 -55 6 -113 -5 -189 -36 -28 -12 -45 -11 -120 4
-48 10 -92 24 -99 30 -9 9 -5 28 18 80 32 76 38 150 17 219 -15 50 -79 123
-154 174 l-57 39 106 8 c133 9 279 46 385 97 106 51 177 121 260 256 88 143
130 187 215 228 149 71 310 86 661 61 274 -20 386 -14 508 26 161 53 255 163
266 310 3 41 1 69 -5 69 -5 0 -26 -24 -47 -54 -52 -76 -137 -153 -200 -182
-139 -63 -309 -53 -651 41 -263 71 -365 89 -485 82 -200 -11 -280 -72 -437
-337 -94 -159 -156 -234 -222 -267 -57 -28 -254 -26 -341 5 -102 35 -202 99
-355 228 -162 136 -249 195 -337 229 l-63 24 45 1 c133 1 375 -50 494 -104 39
-18 126 -69 193 -113 135 -90 201 -116 284 -116 127 2 210 88 374 387 47 85
85 157 85 161 0 3 -13 -1 -29 -10 -33 -16 -77 -68 -141 -165 -66 -100 -128
-168 -174 -193 -33 -17 -58 -22 -126 -22 -112 0 -146 17 -296 150 -122 109
-212 164 -305 189 -82 22 -17 19 79 -4 101 -24 149 -48 277 -140 170 -121 263
-152 348 -117 51 22 47 40 -12 54 -80 19 -150 59 -292 166 -143 107 -220 148
-309 165 -30 6 -143 13 -250 16 -272 8 -651 28 -645 34 3 3 126 -1 273 -8 218
-11 281 -11 336 0 37 7 66 14 64 15 -2 2 -72 11 -157 20 -146 15 -491 74 -557
96 -52 16 -64 39 -79 145 -25 176 -18 246 29 264 54 20 327 -45 398 -94 45
-32 50 -18 17 45 -41 76 -104 148 -166 187 -54 34 -301 138 -378 158 -67 18
-102 17 -150 -5z m1098 -978 c-7 -2 -19 -2 -25 0 -7 3 -2 5 12 5 14 0 19 -2
13 -5z m227 -2064 l85 -81 -83 63 c-45 34 -97 80 -115 103 l-32 41 30 -23 c17
-12 68 -58 115 -103z"/>
</g>
</svg>
